<svg width="128" height="128" viewBox="0 0 128 128" fill="none" xmlns="http://www.w3.org/2000/svg">
<g clip-path="url(#clip0_47_796)">
<path d="M56.9146 28.925V63.645C65.0046 62.005 71.0846 54.855 71.0846 46.285C71.0846 37.715 64.9946 30.565 56.9146 28.925Z" fill="#1A1A1A"/>
<path d="M35.6548 46.285C35.6548 52.075 38.4448 57.205 42.7448 60.435V32.135C38.4448 35.365 35.6548 40.495 35.6548 46.285Z" fill="#1A1A1A"/>
<path d="M71.0846 10.845H56.9146V46.275H71.0846V10.845Z" fill="#1A1A1A"/>
<path d="M35.6548 10.845H92.3448" stroke="#1A1A1A" stroke-width="0.71" stroke-miterlimit="10"/>
<path d="M71.0846 99.075V64.355C62.9946 65.995 56.9146 73.145 56.9146 81.715C56.9146 90.285 63.0046 97.435 71.0846 99.075Z" fill="#1A1A1A"/>
<path d="M92.3444 81.715C92.3444 75.925 89.5544 70.795 85.2544 67.565V95.865C89.5544 92.635 92.3444 87.505 92.3444 81.715Z" fill="#1A1A1A"/>
<path d="M56.915 117.145H71.085V81.715H56.915V117.145Z" fill="#1A1A1A"/>
<path d="M92.3448 117.145H35.6548" stroke="#1A1A1A" stroke-width="0.71" stroke-miterlimit="10"/>
</g>
<defs>
<clipPath id="clip0_47_796">
<rect width="56.69" height="107.01" fill="white" transform="translate(35.6548 10.495)"/>
</clipPath>
</defs>
</svg>
